<svg height="718" width="720" xmlns="http://www.w3.org/2000/svg">
<rect height="718" fill="#555" width="720"></rect>
<text fill="#7f7" font-family="Courier New" font-size="12" xml:space="preserve">
<tspan x="10" y="26">3 megabytes installed</tspan>
<tspan x="10" y="42"></tspan>
<tspan x="10" y="58">node_modules</tspan>
<tspan x="10" y="74">└─┬ meteor-generate@0.12.2 </tspan>
<tspan x="10" y="90">  ├─┬ change-case@3.0.1 </tspan>
<tspan x="10" y="106">  │ ├── camel-case@3.0.0 </tspan>
<tspan x="10" y="122">  │ ├── constant-case@2.0.0 </tspan>
<tspan x="10" y="138">  │ ├── dot-case@2.1.1 </tspan>
<tspan x="10" y="154">  │ ├── header-case@1.0.1 </tspan>
<tspan x="10" y="170">  │ ├── is-lower-case@1.1.3 </tspan>
<tspan x="10" y="186">  │ ├── is-upper-case@1.1.2 </tspan>
<tspan x="10" y="202">  │ ├── lower-case@1.1.4 </tspan>
<tspan x="10" y="218">  │ ├── lower-case-first@1.0.2 </tspan>
<tspan x="10" y="234">  │ ├── no-case@2.3.1 </tspan>
<tspan x="10" y="250">  │ ├── param-case@2.1.1 </tspan>
<tspan x="10" y="266">  │ ├── pascal-case@2.0.1 </tspan>
<tspan x="10" y="282">  │ ├── path-case@2.1.1 </tspan>
<tspan x="10" y="298">  │ ├── sentence-case@2.1.1 </tspan>
<tspan x="10" y="314">  │ ├── snake-case@2.1.0 </tspan>
<tspan x="10" y="330">  │ ├── swap-case@1.1.2 </tspan>
<tspan x="10" y="346">  │ ├── title-case@2.1.1 </tspan>
<tspan x="10" y="362">  │ ├── upper-case@1.1.3 </tspan>
<tspan x="10" y="378">  │ └── upper-case-first@1.1.2 </tspan>
<tspan x="10" y="394">  ├── coffee-script@1.12.5 </tspan>
<tspan x="10" y="410">  ├─┬ commander@2.9.0 </tspan>
<tspan x="10" y="426">  │ └── graceful-readlink@1.0.1 </tspan>
<tspan x="10" y="442">  ├─┬ fs-extra@0.13.0 </tspan>
<tspan x="10" y="458">  │ ├─┬ jsonfile@2.4.0 </tspan>
<tspan x="10" y="474">  │ │ └── graceful-fs@4.1.11 </tspan>
<tspan x="10" y="490">  │ ├── ncp@1.0.1 </tspan>
<tspan x="10" y="506">  │ └─┬ rimraf@2.6.1 </tspan>
<tspan x="10" y="522">  │   └─┬ glob@7.1.1 </tspan>
<tspan x="10" y="538">  │     ├── fs.realpath@1.0.0 </tspan>
<tspan x="10" y="554">  │     ├─┬ inflight@1.0.6 </tspan>
<tspan x="10" y="570">  │     │ └── wrappy@1.0.2 </tspan>
<tspan x="10" y="586">  │     ├── inherits@2.0.3 </tspan>
<tspan x="10" y="602">  │     ├─┬ minimatch@3.0.3 </tspan>
<tspan x="10" y="618">  │     │ └─┬ brace-expansion@1.1.7 </tspan>
<tspan x="10" y="634">  │     │   ├── balanced-match@0.4.2 </tspan>
<tspan x="10" y="650">  │     │   └── concat-map@0.0.1 </tspan>
<tspan x="10" y="666">  │     ├── once@1.4.0 </tspan>
<tspan x="10" y="682">  │     └── path-is-absolute@1.0.1 </tspan>
<tspan x="10" y="698">  └── pluralize@4.0.0</tspan>
</text>
</svg>
